<?xml version="1.0" encoding="utf-8"?>
<!-- Ellipsis icon by Arthur Shlain from Usefulicons.com -->
<svg xmlns="http://www.w3.org/2000/svg" xmlns:xlink="http://www.w3.org/1999/xlink" xml:space="preserve" version="1.1" x="0px" y="0px" viewBox="0 0 100 100" width="400px" height="400px"><g style="fill: #ffffff"><path d="M50,37.5C43.096,37.5,37.5,43.096,37.5,50S43.096,62.5,50,62.5S62.5,56.904,62.5,50S56.904,37.5,50,37.5ZM50,55C47.243,55,45,52.757,45,50S47.243,45,50,45C52.757,45,55,47.243,55,50S52.757,55,50,55Z" stroke="none"></path><path d="M17.5,37.5C10.596,37.5,5,43.096,5,50S10.596,62.5,17.5,62.5S30,56.904,30,50S24.404,37.5,17.5,37.5ZM17.5,55C14.743,55,12.5,52.757,12.5,50S14.743,45,17.5,45C20.257,45,22.5,47.243,22.5,50S20.257,55,17.5,55Z" stroke="none"></path><path d="M82.5,37.5C75.596,37.5,70,43.096,70,50S75.596,62.5,82.5,62.5S95,56.904,95,50S89.404,37.5,82.5,37.5ZM82.5,55C79.743,55,77.5,52.757,77.5,50S79.743,45,82.5,45C85.257,45,87.5,47.243,87.5,50S85.257,55,82.5,55Z" stroke="none"></path></g></svg>